#!OML:ASF I:\Random Stuff\random\construction\7_22_03\Session 2\subj1.ASF
:FULLY-SPECIFIED
:DEGREES
474
root 3.9877 17.7419 -7.68044 17.53 -33.4081 -2.32926
lowerback 10.3168 -0.130224 2.98189
upperback 4.04338 0.0919585 1.32006
thorax -1.57246 0.0360471 -0.321184
lowerneck -20.7832 2.36514 -0.661138
upperneck 42.7153 3.94893 -1.2753
head 20.4091 1.02329 0.30312
rclavicle 2.38542e-015 -1.98785e-014
rhumerus -12.2515 38.9019 -69.311
rradius 85.2582
rwrist 20.4567
rhand -37.9932 -333.812
rfingers 7.12502
rthumb -11.0327 -3.5025
lclavicle 2.38542e-015 -1.98785e-014
lhumerus -21.2368 -62.0569 107.255
lradius 77.0199
lwrist 71.7651
lhand -27.0894 65.6323
lfingers 7.12502
lthumb -0.506428 -455.611
rfemur -25.138 6.8343 16.272
rtibia 14.612
rfoot -4.88429 -5.47908
rtoes -9.4943
lfemur -21.8302 -4.05196 -12.0791
ltibia 23.118
lfoot -15.3519 15.3637
ltoes -31.3385
475
root 4.00901 17.7417 -7.66407 17.5511 -34.071 -2.32229
lowerback 10.0767 -0.0751565 3.06826
upperback 3.97146 0.165352 1.3136
thorax -1.51315 0.0736618 -0.384651
lowerneck -20.7544 2.46693 -0.413046
upperneck 42.7549 4.00119 -1.30865
head 20.4374 1.07622 0.252105
rclavicle -6.24184e-014 2.22639e-014
rhumerus -11.2331 39.2457 -68.6689
rradius 84.6258
rwrist 21.3272
rhand -37.7777 -333.862
rfingers 7.12502
rthumb -10.8249 -3.56326
lclavicle -6.24184e-014 2.22639e-014
lhumerus -21.3798 -61.8263 107.246
lradius 76.9335
lwrist 71.8767
lhand -26.8086 65.476
lfingers 7.12502
lthumb -0.235251 -455.456
rfemur -25.1388 7.20853 16.0482
rtibia 14.2839
rfoot -4.77133 -5.28017
rtoes -10.2467
lfemur -21.623 -3.8523 -12.3086
ltibia 23.0288
lfoot -15.5164 15.7164
ltoes -30.7533
476
root 4.0267 17.7422 -7.64871 17.523 -34.6727 -2.354
lowerback 9.89281 -0.0459493 3.08489
upperback 3.9364 0.200153 1.39216
thorax -1.44795 0.0909966 -0.316464
lowerneck -20.7703 2.6261 -0.156518
upperneck 42.8325 4.19465 -1.45484
head 20.5137 1.16614 0.175002
rclavicle -3.24019e-014 1.07344e-014
rhumerus -10.0879 39.7107 -67.8443
rradius 83.9559
rwrist 22.0123
rhand -37.9232 -333.816
rfingers 7.12502
rthumb -10.9652 -3.5097
lclavicle -3.24019e-014 1.07344e-014
lhumerus -21.4808 -61.3344 107.336
lradius 76.8573
lwrist 71.828
lhand -26.4613 65.1962
lfingers 7.12502
lthumb 0.100197 -455.176
rfemur -25.0524 7.50251 15.9093
rtibia 13.9968
rfoot -4.69461 -5.01934
rtoes -10.8215
lfemur -21.3562 -3.56809 -12.5026
ltibia 22.9429
lfoot -15.6859 15.9822
ltoes -30.208
477
root 4.0438 17.7413 -7.6332 17.3563 -35.185 -2.32837
lowerback 9.85447 -0.0718459 3.06558
upperback 3.91865 0.164357 1.48625
thorax -1.44673 0.0719809 -0.204435
lowerneck -20.7238 2.79144 0.0255992
upperneck 42.8472 4.43932 -1.62187
head 20.5289 1.26213 0.111452
rclavicle 3.08116e-014 1.47101e-014
rhumerus -8.90807 40.3401 -66.9872
rradius 83.2568
rwrist 22.2206
rhand -38.2193 -333.875
rfingers 7.12502
rthumb -11.2508 -3.55374
lclavicle 3.08116e-014 1.47101e-014
lhumerus -21.5075 -60.6124 107.375
lradius 76.7036
lwrist 71.4253
lhand -24.7782 61.601
lfingers 7.12502
lthumb 1.72576 -451.574
rfemur -24.8459 7.74461 15.7471
rtibia 13.7364
rfoot -4.59992 -4.82067
rtoes -11.2125
lfemur -21.0051 -3.57086 -12.7076
ltibia 22.8747
lfoot -15.7272 16.4453
ltoes -30.5592
478
root 4.06107 17.7393 -7.62149 17.2123 -35.5642 -2.28338
lowerback 9.86079 -0.0907071 3.17519
upperback 3.8726 0.151373 1.49669
thorax -1.49768 0.0652635 -0.253719
lowerneck -20.664 2.8315 0.102807
upperneck 42.8243 4.41622 -1.53471
head 20.4925 1.27804 0.134954
rclavicle -3.55825e-014 3.97569e-016
rhumerus -7.93805 40.8454 -66.2588
rradius 82.6096
rwrist 22.1526
rhand -37.9726 -333.625
rfingers 7.12502
rthumb -11.0129 -3.31648
lclavicle -3.55825e-014 3.97569e-016
lhumerus -21.7813 -60.2142 107.584
lradius 76.793
lwrist 72.1273
lhand -26.2483 64.5385
lfingers 7.12502
lthumb 0.305938 -454.518
rfemur -24.6662 7.94909 15.5755
rtibia 13.4836
rfoot -4.50154 -4.68349
rtoes -11.2876
lfemur -20.7389 -3.71214 -12.8769
ltibia 22.8137
lfoot -15.7787 16.8754
ltoes -30.6837
479
root 4.07803 17.7406 -7.61088 17.1727 -35.8467 -2.29531
lowerback 9.79924 -0.09098 3.3801
upperback 3.82108 0.168913 1.50069
thorax -1.51559 0.0748192 -0.366422
lowerneck -20.6616 2.81294 0.152616
upperneck 42.8397 4.26814 -1.34492
head 20.4916 1.25596 0.188034
rclavicle 5.96354e-014 1.86858e-014
rhumerus -7.10564 41.2531 -65.5292
rradius 82.0039
rwrist 22.061
rhand -37.5194 -333.297
rfingers 7.12502
rthumb -10.5757 -3.01114
lclavicle 5.96354e-014 1.86858e-014
lhumerus -22.0346 -59.8265 107.82
lradius 76.754
lwrist 72.3963
lhand -24.0466 62.0065
lfingers 7.12502
lthumb 2.43238 -451.972
rfemur -24.5628 8.17437 15.4441
rtibia 13.254
rfoot -4.40124 -4.60803
rtoes -11.3915
lfemur -20.5732 -3.83812 -12.968
ltibia 22.7447
lfoot -15.9269 17.2105
ltoes -30.088
480
root 4.0921 17.7432 -7.60096 17.1252 -36.1027 -2.3006
lowerback 9.73545 -0.0928426 3.50134
upperback 3.79426 0.176197 1.55038
thorax -1.50754 0.0787226 -0.383787
lowerneck -20.7379 2.83411 0.216336
upperneck 42.9559 4.21372 -1.23096
head 20.5905 1.25712 0.222729
rclavicle 7.63333e-014 -1.98785e-015
rhumerus -6.28464 41.7349 -64.7603
rradius 81.3765
rwrist 21.9338
rhand -37.3787 -332.993
rfingers 7.12502
rthumb -10.44 -2.71336
lclavicle 7.63333e-014 -1.98785e-015
lhumerus -22.1455 -59.339 108.026
lradius 76.6967
lwrist 72.6658
lhand -24.2693 62.3139
lfingers 7.12502
lthumb 2.2173 -452.282
rfemur -24.4597 8.33368 15.336
rtibia 13.056
rfoot -4.30498 -4.50907
rtoes -11.6203
lfemur -20.4049 -3.87782 -13.075
ltibia 22.6704
lfoot -16.0049 17.5152
ltoes -30.0889
